<svg version="1.1" id="Layer_1" xmlns="http://www.w3.org/2000/svg" xmlns:xlink="http://www.w3.org/1999/xlink" x="0px" y="0px"
	 width="100%" viewBox="0 0 707 716" enable-background="new 0 0 707 716" xml:space="preserve">
<path fill="#none" opacity="0.000000" stroke="none"
	d="
M413.000000,717.000000 
	C275.333344,717.000000 138.166672,717.000000 1.000000,717.000000 
	C1.000000,478.333344 1.000000,239.666672 1.000000,1.000000 
	C236.666672,1.000000 472.333344,1.000000 708.000000,1.000000 
	C708.000000,239.666672 708.000000,478.333344 708.000000,717.000000 
	C609.833313,717.000000 511.666656,717.000000 413.000000,717.000000 
M221.884933,79.761841 
	C211.996887,78.105721 202.277863,78.743179 192.896698,82.351425 
	C179.325241,87.571365 176.871704,103.304123 188.264786,112.308655 
	C191.769577,115.078674 195.655228,117.411316 199.531982,119.658730 
	C219.529221,131.251404 241.211838,138.788361 263.080780,145.860229 
	C264.444550,146.301254 265.800842,146.765427 267.160583,147.218826 
	C266.965271,147.894165 266.769928,148.569504 266.574615,149.244843 
	C258.904724,147.517746 251.090881,146.258865 243.598175,143.955368 
	C231.939728,140.371231 220.423798,139.570419 208.850677,143.712646 
	C202.248398,146.075729 197.675690,150.594421 195.128815,157.305908 
	C193.892380,160.564163 192.272995,163.915024 190.003372,166.501144 
	C181.234192,176.493286 177.878128,187.913162 180.905151,200.768646 
	C184.532959,216.175598 194.443604,227.686554 205.953720,237.812759 
	C222.244125,252.144501 241.219131,262.185120 260.857513,271.064850 
	C262.850922,271.966217 264.818237,272.925354 267.260864,274.075897 
	C265.821655,275.142426 265.137634,275.610077 264.496277,276.130371 
	C247.313995,290.069336 249.976044,311.086243 270.159332,319.965607 
	C286.942596,327.349182 304.574127,328.923248 322.474976,325.991119 
	C339.755554,323.160553 356.038940,317.364349 369.541260,305.709259 
	C372.703674,302.979462 375.649658,301.793030 379.747101,301.963989 
	C395.328644,302.614105 409.743378,299.267578 422.354584,289.418030 
	C434.220764,280.150299 435.437439,266.981659 424.832764,256.395416 
	C422.499359,254.066101 421.329865,251.816727 422.001984,248.498810 
	C424.461670,236.356720 422.554962,224.514404 418.049042,213.285065 
	C414.057922,203.338791 408.867737,193.873627 404.224640,184.232849 
	C405.436157,184.678421 407.137421,185.200958 408.754120,185.914963 
	C421.844025,191.696075 434.989105,197.359039 447.980865,203.353851 
	C469.630890,213.343857 491.739105,222.011475 515.108032,227.051788 
	C518.036255,227.683350 521.895752,227.897095 524.207214,226.481430 
	C526.976929,224.785172 529.541199,221.367859 530.285522,218.241409 
	C530.774963,216.185394 528.475220,212.597977 526.419617,210.948517 
	C515.556763,202.231812 503.467773,195.337097 490.169189,191.301849 
	C460.275421,182.231018 430.264587,173.520203 400.140198,165.250153 
	C390.747711,162.671646 382.011658,159.959549 376.421326,151.335480 
	C376.067535,150.789673 375.495453,150.381454 375.009277,149.925903 
	C355.175873,131.340347 332.904999,116.292336 308.578552,104.247375 
	C281.493439,90.836517 253.190964,81.674866 221.884933,79.761841 
M306.635773,526.084839 
	C292.372314,558.764893 278.108826,591.444946 263.552460,624.796082 
	C269.137085,624.796082 273.634766,624.599365 278.105103,624.864136 
	C281.168762,625.045593 282.442810,623.770996 283.562042,621.068115 
	C289.419556,606.922729 295.569519,592.898682 301.443817,578.760071 
	C302.634918,575.893188 304.145966,574.822388 307.337158,574.835876 
	C337.669220,574.964417 368.002228,574.964844 398.334290,574.834351 
	C401.528290,574.820618 402.978058,575.860474 404.133026,578.774963 
	C409.711731,592.852051 415.480286,606.854858 421.319031,620.826599 
	C421.945923,622.326660 423.392822,624.494995 424.582214,624.577271 
	C430.281342,624.971436 436.022736,624.754211 442.518250,624.754211 
	C441.411469,621.990662 440.710510,620.161194 439.951263,618.356201 
	C416.205322,561.906250 392.441650,505.463776 368.712799,449.006653 
	C363.677979,437.027435 363.729034,437.229980 350.794037,436.884735 
	C346.498840,436.770142 344.741425,438.422607 343.177032,442.055786 
	C331.198212,469.876038 319.038147,497.618286 306.635773,526.084839 
M250.120422,483.130859 
	C249.051025,463.301056 239.290726,449.303894 220.817856,442.443054 
	C212.545975,439.370850 203.393753,437.695831 194.558289,437.317139 
	C176.265198,436.533051 157.916702,437.033478 139.591003,437.036377 
	C138.489395,437.036560 137.387833,437.306671 136.367523,437.440552 
	C136.367523,499.963135 136.367523,562.169556 136.367523,624.792114 
	C140.536255,624.792114 144.364853,624.514832 148.135269,624.864624 
	C152.516403,625.271240 153.835175,623.790405 153.799591,619.322998 
	C153.593948,593.501831 153.693878,567.678223 153.710083,541.855408 
	C153.711273,539.941528 153.867279,538.027771 153.965668,535.787170 
	C162.584381,535.787170 170.570251,536.012390 178.538300,535.731812 
	C189.158936,535.357849 199.923187,535.537842 210.347351,533.805115 
	C236.066940,529.529846 252.322723,508.638123 250.120422,483.130859 
M548.500000,624.792236 
	C556.915649,624.792236 565.331299,624.792236 573.636597,624.792236 
	C573.636597,619.013306 573.636597,614.095459 573.636597,608.714966 
	C544.685974,608.714966 516.098511,608.714966 486.997742,608.714966 
	C486.997742,551.344971 486.997742,494.448975 486.997742,437.326752 
	C480.925415,437.326752 475.374481,437.326752 469.564117,437.326752 
	C469.463196,438.749298 469.312653,439.882568 469.312408,441.015869 
	C469.299652,500.669891 469.342133,560.324036 469.208221,619.977783 
	C469.198700,624.224121 470.857605,624.873779 474.515778,624.855408 
	C498.843353,624.733337 523.171814,624.791992 548.500000,624.792236 
M247.567535,415.977997 
	C261.595123,426.608490 281.320618,425.065216 292.820251,412.437592 
	C303.795471,400.385834 303.699341,378.924805 292.614777,366.577209 
	C281.969482,354.718994 261.383606,353.254944 247.938019,363.199005 
	C231.952484,375.021545 231.721252,403.078674 247.567535,415.977997 
M323.993042,417.580231 
	C334.634644,424.572754 346.056458,424.052338 357.622009,420.794830 
	C366.075928,418.413727 366.022919,418.225433 366.022949,409.616791 
	C366.022980,402.209259 366.022949,394.801727 366.022949,387.434937 
	C358.568939,387.434937 351.977417,387.434937 344.987213,387.434937 
	C345.098755,389.336334 345.190094,390.893127 345.308777,392.916077 
	C350.316132,392.916077 354.908997,392.916077 360.041870,392.916077 
	C360.041870,399.013641 359.810242,404.643524 360.130585,410.241852 
	C360.316528,413.491211 358.783569,415.145721 356.129517,415.485962 
	C350.233917,416.241791 344.227386,417.304016 338.362671,416.886078 
	C326.005341,416.005341 316.644775,405.183868 315.995819,392.118805 
	C315.266388,377.433624 323.276093,365.718414 335.674377,362.891602 
	C345.364227,360.682343 353.681854,363.276733 361.205261,369.774567 
	C362.635681,368.247681 363.852295,366.949005 365.360962,365.338593 
	C355.779785,356.527527 344.911621,354.802216 333.137970,357.954071 
	C320.504639,361.336090 312.839905,369.890533 310.619873,382.641174 
	C308.223328,396.405548 311.748749,408.392365 323.993042,417.580231 
M407.901276,404.659302 
	C410.429596,408.966248 413.195465,413.155060 415.414886,417.615692 
	C417.365417,421.536011 419.982819,422.349609 424.228516,420.814301 
	C418.279266,410.896088 412.512787,401.282532 406.647888,391.504944 
	C409.396515,390.518585 411.644348,389.877533 413.751282,388.924896 
	C420.220001,386.000183 422.398773,380.696747 422.133240,373.886658 
	C421.878571,367.355560 418.964020,362.597595 412.933563,360.323212 
	C403.335907,356.703339 393.357697,358.289917 383.342957,358.326935 
	C383.342957,379.522156 383.342957,400.124146 383.342957,421.120514 
	C385.278900,421.120514 386.986847,421.120514 389.247406,421.120514 
	C389.247406,411.255829 389.247406,401.667725 389.247406,392.185242 
	C399.426422,390.624359 399.426422,390.624359 404.172089,398.475342 
	C405.291351,400.327087 406.410431,402.178955 407.901276,404.659302 
M215.501846,411.047089 
	C216.766937,413.199738 218.232574,415.261963 219.252594,417.525055 
	C221.016418,421.438507 223.721954,422.397064 228.050858,420.863892 
	C222.075912,410.926147 216.273773,401.275848 210.377090,391.468292 
	C212.812302,390.632050 215.038086,390.033905 217.125565,389.119904 
	C223.538330,386.312073 226.188614,381.197083 226.018738,374.345947 
	C225.853409,367.677460 222.978943,362.648834 216.709412,360.319275 
	C207.115021,356.754303 197.149124,358.308044 187.406250,358.287781 
	C187.406250,379.710754 187.406250,400.437134 187.406250,421.505829 
	C189.403610,421.417084 190.996735,421.346313 193.095184,421.253052 
	C193.095184,411.303497 193.095184,401.715546 193.095184,392.230774 
	C203.178604,390.554047 203.418243,390.669708 207.956284,398.417816 
	C210.311996,402.439850 212.712326,406.435730 215.501846,411.047089 
M464.472351,421.510986 
	C468.220154,421.510986 471.967926,421.510986 476.004669,421.510986 
	C475.899658,419.263885 475.833038,417.838501 475.738312,415.811646 
	C464.405396,415.811646 453.344940,415.811646 442.378418,415.811646 
	C442.378418,407.444885 442.378418,399.700806 442.378418,391.619049 
	C451.257111,391.619049 459.747742,391.480682 468.230621,391.676880 
	C472.525726,391.776245 473.538605,390.128021 472.054108,385.815979 
	C462.112793,385.815979 452.205200,385.815979 442.405640,385.815979 
	C442.405640,378.193268 442.405640,371.133636 442.405640,363.682312 
	C453.274811,363.682312 463.726257,363.682312 474.454529,363.682312 
	C474.454529,361.724030 474.454529,360.176605 474.454529,358.450714 
	C461.573456,358.450714 449.013367,358.450714 436.295441,358.450714 
	C436.295441,379.524872 436.295441,400.263275 436.295441,421.509949 
	C445.546692,421.509949 454.514435,421.509949 464.472351,421.510986 
M520.079163,367.403046 
	C521.216125,366.514618 522.353088,365.626221 523.575989,364.670715 
	C519.789673,358.918762 514.382507,357.211487 508.401611,356.630249 
	C498.318115,355.650391 488.956696,361.502838 487.009186,369.978424 
	C484.723450,379.925995 489.350372,387.208405 500.433807,391.125885 
	C504.196136,392.455719 508.036774,393.609161 511.688995,395.194824 
	C517.437134,397.690460 519.708252,401.606598 518.911011,406.885834 
	C518.146851,411.945190 513.899109,416.218048 508.559448,417.012512 
	C501.267639,418.097382 494.989136,416.291992 490.433929,409.660431 
	C488.505646,410.985443 486.828125,412.138184 484.881348,413.475922 
	C491.737183,421.911377 500.273895,424.115814 509.874908,422.487274 
	C518.593506,421.008392 524.366394,414.622498 524.950256,406.786438 
	C525.622986,397.756470 522.234131,392.681915 512.887939,389.079651 
	C508.545776,387.406067 503.994110,386.247864 499.727478,384.413818 
	C494.316650,382.087952 492.162750,378.065186 492.847351,372.431030 
	C493.488892,367.151672 496.833008,364.362946 501.694855,362.793610 
	C508.774872,360.508270 514.177673,363.761932 520.079163,367.403046 
M554.272156,386.364502 
	C552.568237,385.708191 550.809143,385.166229 549.170654,384.374481 
	C543.965149,381.858826 541.487854,377.795319 542.078186,372.961273 
	C542.727844,367.641357 545.978943,364.293915 551.538696,362.689117 
	C558.439209,360.697388 563.802368,363.448303 568.678223,368.131897 
	C570.311218,366.888611 571.727173,365.810516 573.136902,364.737213 
	C569.183350,359.334167 563.567810,356.588989 556.615051,356.470673 
	C546.407349,356.296936 537.822205,362.269409 536.234131,370.649048 
	C534.446167,380.084015 538.988159,387.065155 549.592834,391.046204 
	C553.326477,392.447754 557.185913,393.530396 560.867554,395.050201 
	C567.084839,397.616821 569.072266,401.236053 568.118958,407.580200 
	C567.371826,412.552521 562.973511,416.438324 557.376587,417.124359 
	C550.234314,417.999847 544.239685,416.012665 539.849609,409.590363 
	C537.948792,410.926453 536.373840,412.033447 534.857666,413.099152 
	C538.256470,420.666473 550.200867,424.333038 559.049561,422.575775 
	C567.339233,420.929565 573.472961,415.092773 573.998291,408.546234 
	C574.916504,397.103394 572.101257,392.603790 561.615173,388.843506 
	C559.427124,388.058838 557.198242,387.387756 554.272156,386.364502 
M135.985382,394.500000 
	C135.985382,403.404144 135.985382,412.308289 135.985382,421.597687 
	C138.390427,421.403656 139.980682,421.275391 142.112946,421.103394 
	C142.112946,411.171539 142.112946,401.596619 142.112946,392.016327 
	C148.638535,391.644836 154.641022,391.668915 160.534470,390.879242 
	C168.738541,389.779907 174.290710,383.483704 174.621002,375.762756 
	C174.973755,367.516571 170.152725,360.512756 161.730545,359.238495 
	C153.456360,357.986572 144.963745,358.178345 135.985382,357.705994 
	C135.985382,370.289856 135.985382,381.894928 135.985382,394.500000 
z"/>
<path fill="#ffffff" opacity="1.000000" stroke="none"
	d="
M222.344727,79.810448 
	C253.190964,81.674866 281.493439,90.836517 308.578552,104.247375 
	C332.904999,116.292336 355.175873,131.340347 375.009277,149.925903 
	C375.495453,150.381454 376.067535,150.789673 376.421326,151.335480 
	C382.011658,159.959549 390.747711,162.671646 400.140198,165.250153 
	C430.264587,173.520203 460.275421,182.231018 490.169189,191.301849 
	C503.467773,195.337097 515.556763,202.231812 526.419617,210.948517 
	C528.475220,212.597977 530.774963,216.185394 530.285522,218.241409 
	C529.541199,221.367859 526.976929,224.785172 524.207214,226.481430 
	C521.895752,227.897095 518.036255,227.683350 515.108032,227.051788 
	C491.739105,222.011475 469.630890,213.343857 447.980865,203.353851 
	C434.989105,197.359039 421.844025,191.696075 408.754120,185.914963 
	C407.137421,185.200958 405.436157,184.678421 404.224640,184.232849 
	C408.867737,193.873627 414.057922,203.338791 418.049042,213.285065 
	C422.554962,224.514404 424.461670,236.356720 422.001984,248.498810 
	C421.329865,251.816727 422.499359,254.066101 424.832764,256.395416 
	C435.437439,266.981659 434.220764,280.150299 422.354584,289.418030 
	C409.743378,299.267578 395.328644,302.614105 379.747101,301.963989 
	C375.649658,301.793030 372.703674,302.979462 369.541260,305.709259 
	C356.038940,317.364349 339.755554,323.160553 322.474976,325.991119 
	C304.574127,328.923248 286.942596,327.349182 270.159332,319.965607 
	C249.976044,311.086243 247.313995,290.069336 264.496277,276.130371 
	C265.137634,275.610077 265.821655,275.142426 267.260864,274.075897 
	C264.818237,272.925354 262.850922,271.966217 260.857513,271.064850 
	C241.219131,262.185120 222.244125,252.144501 205.953720,237.812759 
	C194.443604,227.686554 184.532959,216.175598 180.905151,200.768646 
	C177.878128,187.913162 181.234192,176.493286 190.003372,166.501144 
	C192.272995,163.915024 193.892380,160.564163 195.128815,157.305908 
	C197.675690,150.594421 202.248398,146.075729 208.850677,143.712646 
	C220.423798,139.570419 231.939728,140.371231 243.598175,143.955368 
	C251.090881,146.258865 258.904724,147.517746 266.574615,149.244843 
	C266.769928,148.569504 266.965271,147.894165 267.160583,147.218826 
	C265.800842,146.765427 264.444550,146.301254 263.080780,145.860229 
	C241.211838,138.788361 219.529221,131.251404 199.531982,119.658730 
	C195.655228,117.411316 191.769577,115.078674 188.264786,112.308655 
	C176.871704,103.304123 179.325241,87.571365 192.896698,82.351425 
	C202.277863,78.743179 211.996887,78.105721 222.344727,79.810448 
M378.063599,182.265305 
	C378.144623,182.246506 378.225647,182.227707 378.306671,182.208908 
	C378.193298,182.145889 378.079926,182.082886 377.720917,181.390701 
	C374.525909,175.282394 368.952271,173.721909 362.321808,174.166290 
	C367.558167,176.764679 372.794525,179.363052 378.063599,182.265305 
M338.918335,241.759583 
	C338.849945,241.777328 338.781586,241.795074 338.713196,241.812820 
	C338.820343,241.868988 338.927521,241.925156 339.293518,242.599640 
	C353.794708,254.154922 370.211792,261.332092 389.025177,263.917419 
	C384.127106,256.740997 378.613434,250.253448 372.990448,243.862091 
	C372.432190,243.227585 371.214966,242.928070 370.289978,242.898438 
	C359.852203,242.563995 349.411804,242.312729 338.918335,241.759583 
M316.977417,204.444519 
	C317.211365,204.440475 317.445282,204.436447 317.679230,204.432404 
	C317.455200,204.286270 317.231201,204.140137 316.772278,203.368561 
	C316.661377,203.244156 316.556732,203.113449 316.438660,202.996262 
	C306.022766,192.658203 295.396149,182.474274 291.986237,167.311447 
	C291.812073,166.536926 290.825867,165.510803 290.073090,165.368881 
	C283.639374,164.155823 277.172180,163.120087 270.338928,161.967911 
	C281.228668,185.010406 281.228699,185.010406 281.129761,203.341934 
	C281.087921,211.094879 281.087891,211.094879 289.346771,212.346405 
	C290.795410,203.000351 293.999939,200.724991 303.716064,202.127304 
	C308.137909,202.765503 312.562347,203.386108 316.977417,204.444519 
M219.316315,225.188141 
	C254.396591,254.434479 324.480408,280.282501 362.359619,275.372925 
	C361.635681,274.893585 361.162964,274.452179 360.603271,274.228607 
	C340.922455,266.367889 324.904053,253.222763 309.376801,239.238327 
	C306.222351,236.397324 301.951904,234.256775 297.829895,233.116898 
	C272.532166,226.121094 248.186325,216.897690 225.907089,202.866394 
	C215.061234,196.035751 205.441315,187.662354 198.300018,176.696808 
	C193.705521,181.768738 192.878342,187.687271 195.698624,195.144379 
	C200.323318,207.372482 209.231506,216.323593 219.316315,225.188141 
M225.415634,95.997978 
	C216.279846,95.137466 207.125641,93.749763 197.783859,96.470070 
	C206.603989,108.685852 324.697784,150.784866 345.186554,149.375351 
	C319.715881,127.830521 277.155579,102.818230 225.415634,95.997978 
M322.738037,290.885071 
	C311.805023,288.072754 300.908173,285.107574 289.925171,282.506195 
	C283.463593,280.975800 276.962952,281.495850 270.961517,284.536743 
	C263.156433,288.491547 261.543579,298.175446 267.811096,304.213593 
	C270.264984,306.577667 273.330536,308.637756 276.492889,309.882874 
	C300.710571,319.418427 324.638641,317.855103 348.163239,307.315826 
	C352.174438,305.518768 355.980804,303.264557 359.881805,301.221588 
	C359.797211,300.790283 359.712585,300.358978 359.627991,299.927673 
	C347.618317,296.944855 335.608612,293.962036 322.738037,290.885071 
M383.986664,208.536072 
	C363.480042,188.325623 337.732727,178.485580 310.730896,171.000946 
	C316.618103,181.849380 325.268585,189.915497 334.889801,196.739166 
	C347.911133,205.974335 361.507568,214.395294 374.766144,223.301208 
	C379.198578,226.278534 385.230286,226.244141 389.076233,222.181274 
	C392.858063,218.186111 388.508911,215.322037 386.954834,212.173309 
	C386.380493,211.009552 385.322632,210.084442 383.986664,208.536072 
M225.422028,180.076279 
	C238.335876,190.702789 252.715469,198.759125 268.805054,205.228760 
	C268.465393,202.611267 268.316925,200.670776 267.950623,198.772293 
	C265.433990,185.728607 262.193481,173.000885 250.739075,164.485977 
	C248.676361,162.952606 246.197113,161.120514 243.831238,161.001984 
	C233.299225,160.474442 223.188080,162.810364 211.998169,166.927887 
	C216.730362,171.600449 220.798721,175.617554 225.422028,180.076279 
M417.515930,278.864594 
	C421.130493,273.888702 420.869720,271.486084 415.824890,266.120209 
	C408.606140,277.766266 397.618073,284.513641 385.259155,289.460297 
	C396.855499,288.995148 407.860260,287.068512 417.515930,278.864594 
M396.483002,236.079971 
	C399.403839,237.768799 402.324707,239.457626 406.570648,241.912598 
	C405.586639,236.082199 404.856506,231.756058 403.991577,226.631073 
	C400.851898,230.160919 398.486389,232.820389 396.483002,236.079971 
M360.495544,172.546570 
	C360.495544,172.546570 360.452301,172.478821 360.495544,172.546570 
z"/>
<path fill="#ffffff" opacity="1.000000" stroke="none"
	d="
M306.785095,525.734802 
	C319.038147,497.618286 331.198212,469.876038 343.177032,442.055786 
	C344.741425,438.422607 346.498840,436.770142 350.794037,436.884735 
	C363.729034,437.229980 363.677979,437.027435 368.712799,449.006653 
	C392.441650,505.463776 416.205322,561.906250 439.951263,618.356201 
	C440.710510,620.161194 441.411469,621.990662 442.518250,624.754211 
	C436.022736,624.754211 430.281342,624.971436 424.582214,624.577271 
	C423.392822,624.494995 421.945923,622.326660 421.319031,620.826599 
	C415.480286,606.854858 409.711731,592.852051 404.133026,578.774963 
	C402.978058,575.860474 401.528290,574.820618 398.334290,574.834351 
	C368.002228,574.964844 337.669220,574.964417 307.337158,574.835876 
	C304.145966,574.822388 302.634918,575.893188 301.443817,578.760071 
	C295.569519,592.898682 289.419556,606.922729 283.562042,621.068115 
	C282.442810,623.770996 281.168762,625.045593 278.105103,624.864136 
	C273.634766,624.599365 269.137085,624.796082 263.552460,624.796082 
	C278.108826,591.444946 292.372314,558.764893 306.785095,525.734802 
M355.697174,460.956543 
	C355.092529,459.745331 354.487885,458.534149 353.550354,456.656189 
	C338.916504,491.092438 324.639679,524.688477 310.178955,558.717285 
	C339.003723,558.717285 367.170959,558.717285 396.030487,558.717285 
	C382.557495,526.073303 369.262756,493.861176 355.697174,460.956543 
z"/>
<path fill="#ffffff" opacity="1.000000" stroke="none" 
	d="
M250.142456,483.563293 
	C252.322723,508.638123 236.066940,529.529846 210.347351,533.805115 
	C199.923187,535.537842 189.158936,535.357849 178.538300,535.731812 
	C170.570251,536.012390 162.584381,535.787170 153.965668,535.787170 
	C153.867279,538.027771 153.711273,539.941528 153.710083,541.855408 
	C153.693878,567.678223 153.593948,593.501831 153.799591,619.322998 
	C153.835175,623.790405 152.516403,625.271240 148.135269,624.864624 
	C144.364853,624.514832 140.536255,624.792114 136.367523,624.792114 
	C136.367523,562.169556 136.367523,499.963135 136.367523,437.440552 
	C137.387833,437.306671 138.489395,437.036560 139.591003,437.036377 
	C157.916702,437.033478 176.265198,436.533051 194.558289,437.317139 
	C203.393753,437.695831 212.545975,439.370850 220.817856,442.443054 
	C239.290726,449.303894 249.051025,463.301056 250.142456,483.563293 
M211.323212,516.986877 
	C221.657974,513.231140 229.214661,506.693207 231.824265,495.637695 
	C236.758835,474.732544 225.398071,456.887573 204.018539,454.224243 
	C189.899109,452.465363 175.456726,453.292511 161.158508,452.981384 
	C158.717010,452.928223 156.273346,452.973877 154.105515,452.973877 
	C153.693268,453.870605 153.439957,454.164978 153.439117,454.460083 
	C153.379745,475.111786 153.373306,495.763763 153.264389,516.415161 
	C153.248047,519.511902 154.899399,519.878540 157.392090,519.863281 
	C168.218781,519.797058 179.058578,520.151001 189.868668,519.722595 
	C196.786545,519.448547 203.660904,518.075439 211.323212,516.986877 
z"/>
<path fill="#ffffff" opacity="1.000000" stroke="none" 
	d="
M548.000000,624.792053 
	C523.171814,624.791992 498.843353,624.733337 474.515778,624.855408 
	C470.857605,624.873779 469.198700,624.224121 469.208221,619.977783 
	C469.342133,560.324036 469.299652,500.669891 469.312408,441.015869 
	C469.312653,439.882568 469.463196,438.749298 469.564117,437.326752 
	C475.374481,437.326752 480.925415,437.326752 486.997742,437.326752 
	C486.997742,494.448975 486.997742,551.344971 486.997742,608.714966 
	C516.098511,608.714966 544.685974,608.714966 573.636597,608.714966 
	C573.636597,614.095459 573.636597,619.013306 573.636597,624.792236 
	C565.331299,624.792236 556.915649,624.792236 548.000000,624.792053 
z"/>
<path fill="#ffffff" opacity="1.000000" stroke="none" 
	d="
M247.296478,415.746155 
	C231.721252,403.078674 231.952484,375.021545 247.938019,363.199005 
	C261.383606,353.254944 281.969482,354.718994 292.614777,366.577209 
	C303.699341,378.924805 303.795471,400.385834 292.820251,412.437592 
	C281.320618,425.065216 261.595123,426.608490 247.296478,415.746155 
M246.303772,406.060852 
	C253.584732,415.839996 265.325439,419.762238 276.809814,416.252167 
	C287.552948,412.968628 294.524902,403.215851 294.965424,390.854919 
	C295.405731,378.500397 289.044128,367.900024 278.871338,364.037170 
	C267.206787,359.607880 255.141922,362.537628 247.654358,371.617676 
	C240.547073,380.236572 239.815704,394.321472 246.303772,406.060852 
z"/>
<path fill="#ffffff" opacity="1.000000" stroke="none" 
	d="
M323.699219,417.368286 
	C311.748749,408.392365 308.223328,396.405548 310.619873,382.641174 
	C312.839905,369.890533 320.504639,361.336090 333.137970,357.954071 
	C344.911621,354.802216 355.779785,356.527527 365.360962,365.338593 
	C363.852295,366.949005 362.635681,368.247681 361.205261,369.774567 
	C353.681854,363.276733 345.364227,360.682343 335.674377,362.891602 
	C323.276093,365.718414 315.266388,377.433624 315.995819,392.118805 
	C316.644775,405.183868 326.005341,416.005341 338.362671,416.886078 
	C344.227386,417.304016 350.233917,416.241791 356.129517,415.485962 
	C358.783569,415.145721 360.316528,413.491211 360.130585,410.241852 
	C359.810242,404.643524 360.041870,399.013641 360.041870,392.916077 
	C354.908997,392.916077 350.316132,392.916077 345.308777,392.916077 
	C345.190094,390.893127 345.098755,389.336334 344.987213,387.434937 
	C351.977417,387.434937 358.568939,387.434937 366.022949,387.434937 
	C366.022949,394.801727 366.022980,402.209259 366.022949,409.616791 
	C366.022919,418.225433 366.075928,418.413727 357.622009,420.794830 
	C346.056458,424.052338 334.634644,424.572754 323.699219,417.368286 
z"/>
<path fill="#ffffff" opacity="1.000000" stroke="none" 
	d="
M407.715454,404.345032 
	C406.410431,402.178955 405.291351,400.327087 404.172089,398.475342 
	C399.426422,390.624359 399.426422,390.624359 389.247406,392.185242 
	C389.247406,401.667725 389.247406,411.255829 389.247406,421.120514 
	C386.986847,421.120514 385.278900,421.120514 383.342957,421.120514 
	C383.342957,400.124146 383.342957,379.522156 383.342957,358.326935 
	C393.357697,358.289917 403.335907,356.703339 412.933563,360.323212 
	C418.964020,362.597595 421.878571,367.355560 422.133240,373.886658 
	C422.398773,380.696747 420.220001,386.000183 413.751282,388.924896 
	C411.644348,389.877533 409.396515,390.518585 406.647888,391.504944 
	C412.512787,401.282532 418.279266,410.896088 424.228516,420.814301 
	C419.982819,422.349609 417.365417,421.536011 415.414886,417.615692 
	C413.195465,413.155060 410.429596,408.966248 407.715454,404.345032 
M410.428528,384.272858 
	C415.298370,381.829010 416.838501,377.704895 415.997253,372.618805 
	C415.227112,367.962616 412.001068,364.940094 407.651215,364.478973 
	C401.657379,363.843506 395.545715,364.319733 389.520325,364.319733 
	C389.520325,371.681335 389.520325,378.719421 389.520325,386.609467 
	C396.586578,385.925446 403.158844,385.289246 410.428528,384.272858 
z"/>
<path fill="#ffffff" opacity="1.000000" stroke="none" 
	d="
M215.297165,410.745270 
	C212.712326,406.435730 210.311996,402.439850 207.956284,398.417816 
	C203.418243,390.669708 203.178604,390.554047 193.095184,392.230774 
	C193.095184,401.715546 193.095184,411.303497 193.095184,421.253052 
	C190.996735,421.346313 189.403610,421.417084 187.406250,421.505829 
	C187.406250,400.437134 187.406250,379.710754 187.406250,358.287781 
	C197.149124,358.308044 207.115021,356.754303 216.709412,360.319275 
	C222.978943,362.648834 225.853409,367.677460 226.018738,374.345947 
	C226.188614,381.197083 223.538330,386.312073 217.125565,389.119904 
	C215.038086,390.033905 212.812302,390.632050 210.377090,391.468292 
	C216.273773,401.275848 222.075912,410.926147 228.050858,420.863892 
	C223.721954,422.397064 221.016418,421.438507 219.252594,417.525055 
	C218.232574,415.261963 216.766937,413.199738 215.297165,410.745270 
M197.624023,363.813965 
	C196.201340,363.932068 194.778641,364.050201 193.362701,364.167755 
	C193.362701,371.612915 193.362701,378.641693 193.362701,386.272583 
	C199.505356,385.947449 205.337311,386.129730 210.989609,385.209106 
	C217.343369,384.174255 220.319305,379.931824 220.036331,374.052338 
	C219.778351,368.692596 215.665527,364.606293 209.535431,364.041748 
	C205.912338,363.708099 202.243347,363.872803 197.624023,363.813965 
z"/>
<path fill="#ffffff" opacity="1.000000" stroke="none" 
	d="
M463.977295,421.510468 
	C454.514435,421.509949 445.546692,421.509949 436.295441,421.509949 
	C436.295441,400.263275 436.295441,379.524872 436.295441,358.450714 
	C449.013367,358.450714 461.573456,358.450714 474.454529,358.450714 
	C474.454529,360.176605 474.454529,361.724030 474.454529,363.682312 
	C463.726257,363.682312 453.274811,363.682312 442.405640,363.682312 
	C442.405640,371.133636 442.405640,378.193268 442.405640,385.815979 
	C452.205200,385.815979 462.112793,385.815979 472.054108,385.815979 
	C473.538605,390.128021 472.525726,391.776245 468.230621,391.676880 
	C459.747742,391.480682 451.257111,391.619049 442.378418,391.619049 
	C442.378418,399.700806 442.378418,407.444885 442.378418,415.811646 
	C453.344940,415.811646 464.405396,415.811646 475.738312,415.811646 
	C475.833038,417.838501 475.899658,419.263885 476.004669,421.510986 
	C471.967926,421.510986 468.220154,421.510986 463.977295,421.510468 
z"/>
<path fill="#ffffff" opacity="1.000000" stroke="none" 
	d="
M519.760254,367.571259 
	C514.177673,363.761932 508.774872,360.508270 501.694855,362.793610 
	C496.833008,364.362946 493.488892,367.151672 492.847351,372.431030 
	C492.162750,378.065186 494.316650,382.087952 499.727478,384.413818 
	C503.994110,386.247864 508.545776,387.406067 512.887939,389.079651 
	C522.234131,392.681915 525.622986,397.756470 524.950256,406.786438 
	C524.366394,414.622498 518.593506,421.008392 509.874908,422.487274 
	C500.273895,424.115814 491.737183,421.911377 484.881348,413.475922 
	C486.828125,412.138184 488.505646,410.985443 490.433929,409.660431 
	C494.989136,416.291992 501.267639,418.097382 508.559448,417.012512 
	C513.899109,416.218048 518.146851,411.945190 518.911011,406.885834 
	C519.708252,401.606598 517.437134,397.690460 511.688995,395.194824 
	C508.036774,393.609161 504.196136,392.455719 500.433807,391.125885 
	C489.350372,387.208405 484.723450,379.925995 487.009186,369.978424 
	C488.956696,361.502838 498.318115,355.650391 508.401611,356.630249 
	C514.382507,357.211487 519.789673,358.918762 523.575989,364.670715 
	C522.353088,365.626221 521.216125,366.514618 519.760254,367.571259 
z"/>
<path fill="#ffffff" opacity="1.000000" stroke="none" 
	d="
M554.630188,386.514404 
	C557.198242,387.387756 559.427124,388.058838 561.615173,388.843506 
	C572.101257,392.603790 574.916504,397.103394 573.998291,408.546234 
	C573.472961,415.092773 567.339233,420.929565 559.049561,422.575775 
	C550.200867,424.333038 538.256470,420.666473 534.857666,413.099152 
	C536.373840,412.033447 537.948792,410.926453 539.849609,409.590363 
	C544.239685,416.012665 550.234314,417.999847 557.376587,417.124359 
	C562.973511,416.438324 567.371826,412.552521 568.118958,407.580200 
	C569.072266,401.236053 567.084839,397.616821 560.867554,395.050201 
	C557.185913,393.530396 553.326477,392.447754 549.592834,391.046204 
	C538.988159,387.065155 534.446167,380.084015 536.234131,370.649048 
	C537.822205,362.269409 546.407349,356.296936 556.615051,356.470673 
	C563.567810,356.588989 569.183350,359.334167 573.136902,364.737213 
	C571.727173,365.810516 570.311218,366.888611 568.678223,368.131897 
	C563.802368,363.448303 558.439209,360.697388 551.538696,362.689117 
	C545.978943,364.293915 542.727844,367.641357 542.078186,372.961273 
	C541.487854,377.795319 543.965149,381.858826 549.170654,384.374481 
	C550.809143,385.166229 552.568237,385.708191 554.630188,386.514404 
z"/>
<path fill="#ffffff" opacity="1.000000" stroke="none" 
	d="
M135.985382,394.000000 
	C135.985382,381.894928 135.985382,370.289856 135.985382,357.705994 
	C144.963745,358.178345 153.456360,357.986572 161.730545,359.238495 
	C170.152725,360.512756 174.973755,367.516571 174.621002,375.762756 
	C174.290710,383.483704 168.738541,389.779907 160.534470,390.879242 
	C154.641022,391.668915 148.638535,391.644836 142.112946,392.016327 
	C142.112946,401.596619 142.112946,411.171539 142.112946,421.103394 
	C139.980682,421.275391 138.390427,421.403656 135.985382,421.597687 
	C135.985382,412.308289 135.985382,403.404144 135.985382,394.000000 
M141.957535,372.537323 
	C141.957535,376.938385 141.957535,381.339447 141.957535,386.307892 
	C148.557251,385.948822 154.399551,386.111084 160.065262,385.188568 
	C165.809326,384.253357 168.241989,380.638519 168.286713,375.042053 
	C168.329910,369.635437 165.647964,365.184753 160.392639,364.497284 
	C154.451996,363.720154 148.331451,364.318176 141.957565,364.318176 
	C141.957565,366.950836 141.957565,369.254730 141.957535,372.537323 
z"/>
<path fill="#none" opacity="0.000000" stroke="none"
	d="
M219.022476,224.990997 
	C209.231506,216.323593 200.323318,207.372482 195.698624,195.144379 
	C192.878342,187.687271 193.705521,181.768738 198.300018,176.696808 
	C205.441315,187.662354 215.061234,196.035751 225.907089,202.866394 
	C248.186325,216.897690 272.532166,226.121094 297.829895,233.116898 
	C301.951904,234.256775 306.222351,236.397324 309.376801,239.238327 
	C324.904053,253.222763 340.922455,266.367889 360.603271,274.228607 
	C361.162964,274.452179 361.635681,274.893585 362.359619,275.372925 
	C324.480408,280.282501 254.396591,254.434479 219.022476,224.990997 
z"/>
<path fill="#none" opacity="0.000000" stroke="none"
	d="
M225.861710,96.025337 
	C277.155579,102.818230 319.715881,127.830521 345.186554,149.375351 
	C324.697784,150.784866 206.603989,108.685852 197.783859,96.470070 
	C207.125641,93.749763 216.279846,95.137466 225.861710,96.025337 
z"/>
<path fill="#none" opacity="0.000000" stroke="none"
	d="
M323.168488,290.932129 
	C335.608612,293.962036 347.618317,296.944855 359.627991,299.927673 
	C359.712585,300.358978 359.797211,300.790283 359.881805,301.221588 
	C355.980804,303.264557 352.174438,305.518768 348.163239,307.315826 
	C324.638641,317.855103 300.710571,319.418427 276.492889,309.882874 
	C273.330536,308.637756 270.264984,306.577667 267.811096,304.213593 
	C261.543579,298.175446 263.156433,288.491547 270.961517,284.536743 
	C276.962952,281.495850 283.463593,280.975800 289.925171,282.506195 
	C300.908173,285.107574 311.805023,288.072754 323.168488,290.932129 
z"/>
<path fill="#none" opacity="0.000000" stroke="none"
	d="
M384.235962,208.793289 
	C385.322632,210.084442 386.380493,211.009552 386.954834,212.173309 
	C388.508911,215.322037 392.858063,218.186111 389.076233,222.181274 
	C385.230286,226.244141 379.198578,226.278534 374.766144,223.301208 
	C361.507568,214.395294 347.911133,205.974335 334.889801,196.739166 
	C325.268585,189.915497 316.618103,181.849380 310.730896,171.000946 
	C337.732727,178.485580 363.480042,188.325623 384.235962,208.793289 
z"/>
<path fill="#none" opacity="0.000000" stroke="none"
	d="
M225.144562,179.855469 
	C220.798721,175.617554 216.730362,171.600449 211.998169,166.927887 
	C223.188080,162.810364 233.299225,160.474442 243.831238,161.001984 
	C246.197113,161.120514 248.676361,162.952606 250.739075,164.485977 
	C262.193481,173.000885 265.433990,185.728607 267.950623,198.772293 
	C268.316925,200.670776 268.465393,202.611267 268.805054,205.228760 
	C252.715469,198.759125 238.335876,190.702789 225.144562,179.855469 
z"/>
<path fill="#none" opacity="0.000000" stroke="none"
	d="
M316.985596,204.014679 
	C312.562347,203.386108 308.137909,202.765503 303.716064,202.127304 
	C293.999939,200.724991 290.795410,203.000351 289.346771,212.346405 
	C281.087891,211.094879 281.087921,211.094879 281.129761,203.341934 
	C281.228699,185.010406 281.228668,185.010406 270.338928,161.967911 
	C277.172180,163.120087 283.639374,164.155823 290.073090,165.368881 
	C290.825867,165.510803 291.812073,166.536926 291.986237,167.311447 
	C295.396149,182.474274 306.022766,192.658203 316.438660,202.996262 
	C316.556732,203.113449 316.661377,203.244156 316.885223,203.685196 
	C316.998169,204.001831 316.985596,204.014694 316.985596,204.014679 
z"/>
<path fill="#none" opacity="0.000000" stroke="none"
	d="
M338.972107,242.039154 
	C349.411804,242.312729 359.852203,242.563995 370.289978,242.898438 
	C371.214966,242.928070 372.432190,243.227585 372.990448,243.862091 
	C378.613434,250.253448 384.127106,256.740997 389.025177,263.917419 
	C370.211792,261.332092 353.794708,254.154922 339.146545,242.302811 
	C338.999542,242.005981 338.972107,242.039169 338.972107,242.039154 
z"/>
<path fill="#none" opacity="0.000000" stroke="none"
	d="
M417.248016,279.123413 
	C407.860260,287.068512 396.855499,288.995148 385.259155,289.460297 
	C397.618073,284.513641 408.606140,277.766266 415.824890,266.120209 
	C420.869720,271.486084 421.130493,273.888702 417.248016,279.123413 
z"/>
<path fill="#none" opacity="0.000000" stroke="none"
	d="
M396.301941,235.779907 
	C398.486389,232.820389 400.851898,230.160919 403.991577,226.631073 
	C404.856506,231.756058 405.586639,236.082199 406.570648,241.912598 
	C402.324707,239.457626 399.403839,237.768799 396.301941,235.779907 
z"/>
<path fill="#none" opacity="0.000000" stroke="none"
	d="
M378.030884,181.961441 
	C372.794525,179.363052 367.558167,176.764679 362.321808,174.166290 
	C368.952271,173.721909 374.525909,175.282394 377.861359,181.692429 
	C378.001801,181.994156 378.030884,181.961441 378.030884,181.961441 
z"/>
<path fill="#none" opacity="0.000000" stroke="none"
	d="
M339.017090,241.993652 
	C338.927521,241.925156 338.820343,241.868988 338.713196,241.812820 
	C338.781586,241.795074 338.849945,241.777328 338.945221,241.899384 
	C338.972107,242.039169 338.999542,242.005981 339.017090,241.993652 
z"/>
<path fill="#none" opacity="0.000000" stroke="none"
	d="
M317.002686,203.997925 
	C317.231201,204.140137 317.455200,204.286270 317.679230,204.432404 
	C317.445282,204.436447 317.211365,204.440475 316.981506,204.229614 
	C316.985596,204.014694 316.998169,204.001831 317.002686,203.997925 
z"/>
<path fill="#none" opacity="0.000000" stroke="none"
	d="
M377.984192,182.007019 
	C378.079926,182.082886 378.193298,182.145889 378.306671,182.208908 
	C378.225647,182.227707 378.144623,182.246506 378.047241,182.113373 
	C378.030884,181.961441 378.001801,181.994156 377.984192,182.007019 
z"/>
<path fill="#none" opacity="0.000000" stroke="none"
	d="
M360.473938,172.512695 
	C360.452301,172.478821 360.495544,172.546570 360.473938,172.512695 
z"/>
<path fill="#none" opacity="0.000000" stroke="none"
	d="
M355.832581,461.302795 
	C369.262756,493.861176 382.557495,526.073303 396.030487,558.717285 
	C367.170959,558.717285 339.003723,558.717285 310.178955,558.717285 
	C324.639679,524.688477 338.916504,491.092438 353.550354,456.656189 
	C354.487885,458.534149 355.092529,459.745331 355.832581,461.302795 
z"/>
<path fill="#none" opacity="0.000000" stroke="none"
	d="
M210.938995,517.090942 
	C203.660904,518.075439 196.786545,519.448547 189.868668,519.722595 
	C179.058578,520.151001 168.218781,519.797058 157.392090,519.863281 
	C154.899399,519.878540 153.248047,519.511902 153.264389,516.415161 
	C153.373306,495.763763 153.379745,475.111786 153.439117,454.460083 
	C153.439957,454.164978 153.693268,453.870605 154.105515,452.973877 
	C156.273346,452.973877 158.717010,452.928223 161.158508,452.981384 
	C175.456726,453.292511 189.899109,452.465363 204.018539,454.224243 
	C225.398071,456.887573 236.758835,474.732544 231.824265,495.637695 
	C229.214661,506.693207 221.657974,513.231140 210.938995,517.090942 
z"/>
<path fill="#none" opacity="0.000000" stroke="none"
	d="
M246.100952,405.749634 
	C239.815704,394.321472 240.547073,380.236572 247.654358,371.617676 
	C255.141922,362.537628 267.206787,359.607880 278.871338,364.037170 
	C289.044128,367.900024 295.405731,378.500397 294.965424,390.854919 
	C294.524902,403.215851 287.552948,412.968628 276.809814,416.252167 
	C265.325439,419.762238 253.584732,415.839996 246.100952,405.749634 
z"/>
<path fill="#none" opacity="0.000000" stroke="none"
	d="
M410.079834,384.462952 
	C403.158844,385.289246 396.586578,385.925446 389.520325,386.609467 
	C389.520325,378.719421 389.520325,371.681335 389.520325,364.319733 
	C395.545715,364.319733 401.657379,363.843506 407.651215,364.478973 
	C412.001068,364.940094 415.227112,367.962616 415.997253,372.618805 
	C416.838501,377.704895 415.298370,381.829010 410.079834,384.462952 
z"/>
<path fill="#none" opacity="0.000000" stroke="none"
	d="
M198.109512,363.813690 
	C202.243347,363.872803 205.912338,363.708099 209.535431,364.041748 
	C215.665527,364.606293 219.778351,368.692596 220.036331,374.052338 
	C220.319305,379.931824 217.343369,384.174255 210.989609,385.209106 
	C205.337311,386.129730 199.505356,385.947449 193.362701,386.272583 
	C193.362701,378.641693 193.362701,371.612915 193.362701,364.167755 
	C194.778641,364.050201 196.201340,363.932068 198.109512,363.813690 
z"/>
<path fill="#none" opacity="0.000000" stroke="none"
	d="
M141.957550,372.047974 
	C141.957565,369.254730 141.957565,366.950836 141.957565,364.318176 
	C148.331451,364.318176 154.451996,363.720154 160.392639,364.497284 
	C165.647964,365.184753 168.329910,369.635437 168.286713,375.042053 
	C168.241989,380.638519 165.809326,384.253357 160.065262,385.188568 
	C154.399551,386.111084 148.557251,385.948822 141.957535,386.307892 
	C141.957535,381.339447 141.957535,376.938385 141.957550,372.047974 
z"/>
</svg>